<svg width="852" height="620" viewBox="0 0 852 620" fill="none" xmlns="http://www.w3.org/2000/svg">
<rect width="846" height="612" transform="translate(5.73051 0.260509) rotate(0.508155)" fill="white"/>
<path d="M628.342 272.293C422.557 382.472 360.982 462.096 334.359 438.192L303.108 240.907L456.515 139.264L628.342 272.293Z" fill="black"/>
<rect x="582.242" y="494.011" width="168" height="329" transform="rotate(-159.492 582.242 494.011)" fill="black"/>
<ellipse cx="245.744" cy="168.896" rx="129.5" ry="103.5" transform="rotate(0.508155 245.744 168.896)" fill="#CAD5CA"/>
<rect x="325.331" y="159.51" width="205" height="227" transform="rotate(0.508155 325.331 159.51)" fill="#6320EE"/>
<path d="M400.669 347.186L257.53 418.665L258.82 273.179L400.669 347.186Z" fill="black"/>
<path d="M458.629 351.844C468.196 226.667 325.676 183.663 233.157 178.694L458.629 351.844Z" fill="#CAD5CA"/>
<path d="M559.122 299.8C577.219 280.483 598.247 263.54 624.012 253.163C746.381 203.875 188.599 127.721 559.122 299.8Z" fill="white"/>
</svg>
